<svg width="26" height="26" viewBox="0 0 26 26" fill="none" xmlns="http://www.w3.org/2000/svg">
<g clip-path="url(#clip0_252_2018)">
<path d="M9.74992 4.33325H5.41659C4.81828 4.33325 4.33325 4.81828 4.33325 5.41659V9.74992C4.33325 10.3482 4.81828 10.8333 5.41659 10.8333H9.74992C10.3482 10.8333 10.8333 10.3482 10.8333 9.74992V5.41659C10.8333 4.81828 10.3482 4.33325 9.74992 4.33325Z" stroke="white" stroke-linecap="round" stroke-linejoin="round"/>
<path d="M20.5834 4.33325H16.2501C15.6518 4.33325 15.1667 4.81828 15.1667 5.41659V9.74992C15.1667 10.3482 15.6518 10.8333 16.2501 10.8333H20.5834C21.1817 10.8333 21.6667 10.3482 21.6667 9.74992V5.41659C21.6667 4.81828 21.1817 4.33325 20.5834 4.33325Z" stroke="white" stroke-linecap="round" stroke-linejoin="round"/>
<path d="M9.74992 15.1667H5.41659C4.81828 15.1667 4.33325 15.6518 4.33325 16.2501V20.5834C4.33325 21.1817 4.81828 21.6667 5.41659 21.6667H9.74992C10.3482 21.6667 10.8333 21.1817 10.8333 20.5834V16.2501C10.8333 15.6518 10.3482 15.1667 9.74992 15.1667Z" stroke="white" stroke-linecap="round" stroke-linejoin="round"/>
<path d="M20.5834 15.1667H16.2501C15.6518 15.1667 15.1667 15.6518 15.1667 16.2501V20.5834C15.1667 21.1817 15.6518 21.6667 16.2501 21.6667H20.5834C21.1817 21.6667 21.6667 21.1817 21.6667 20.5834V16.2501C21.6667 15.6518 21.1817 15.1667 20.5834 15.1667Z" stroke="white" stroke-linecap="round" stroke-linejoin="round"/>
</g>
<defs>
<clipPath id="clip0_252_2018">
<rect width="26" height="26" fill="white"/>
</clipPath>
</defs>
</svg>
